<svg id="Layer_1" data-name="Layer 1" xmlns="http://www.w3.org/2000/svg" xmlns:xlink="http://www.w3.org/1999/xlink" viewBox="0 0 40.21 20.24"><defs><style>.cls-1{fill:#f3f5f4;}</style></defs><path d="M56.42,17.48c0,.05,0,.22.12.22s.07-.17.12-.22.26,0,.26-.11-.2-.05-.26-.1,0-.22-.12-.22-.07.17-.12.22-.26,0-.26.1S56.36,17.43,56.42,17.48Z" transform="translate(-27.36 -0.36)"/><path d="M57.44,16.94c0,.22.6.17.77.32s.12.65.37.65.21-.51.38-.65.77-.1.77-.32-.6-.18-.77-.32-.12-.65-.38-.65-.2.51-.37.65S57.44,16.72,57.44,16.94Z" transform="translate(-27.36 -0.36)"/><path d="M34.21,10.06h3.64c-4.29-3-5.53-5.94-2.59-7.18,2.61-1.1,7.87-.6,13.46,1.06C40.87.88,32.75-.47,29.15.9S27.73,6.16,34.21,10.06Z" transform="translate(-27.36 -0.36)"/><path d="M65.45,12.7a.42.42,0,1,0,0-.82.42.42,0,1,0,0,.82Z" transform="translate(-27.36 -0.36)"/><path d="M56.92,16.05c.09.07.06.33.19.33s.1-.26.19-.33.38-.05.38-.16-.3-.09-.38-.16-.06-.33-.19-.33-.1.26-.19.33-.38,0-.38.16S56.84,16,56.92,16.05Z" transform="translate(-27.36 -0.36)"/><path d="M64,11.88a.91.91,0,0,0,1-.82,1,1,0,0,0-1.94,0A.9.9,0,0,0,64,11.88Z" transform="translate(-27.36 -0.36)"/><path d="M30.51,10.47a.42.42,0,1,0,.49.42A.46.46,0,0,0,30.51,10.47Z" transform="translate(-27.36 -0.36)"/><path d="M36.46,4.15c.13,0,.1-.26.19-.33s.38,0,.38-.16-.3-.08-.38-.16-.06-.32-.19-.32-.1.25-.19.32-.38,0-.38.16.3.09.38.16S36.33,4.15,36.46,4.15Z" transform="translate(-27.36 -0.36)"/><ellipse cx="2.65" cy="8.75" rx="0.94" ry="0.8"/><path d="M59.51,10.21l-2.85.4c4.63,3.14,6.06,6.19,3,7.47-2.62,1.11-7.88.6-13.46-1,7.85,3.06,16,4.41,19.57,3C69.74,18.58,66.91,14.33,59.51,10.21Z" transform="translate(-27.36 -0.36)"/><path d="M35.89,4.82c-.08,0-.07.17-.12.22s-.26,0-.26.11.2,0,.26.1,0,.22.12.22S36,5.3,36,5.25s.26,0,.26-.1S36.07,5.09,36,5,36,4.82,35.89,4.82Z" transform="translate(-27.36 -0.36)"/><path d="M37.56,5c.17.14.12.65.37.65s.21-.51.38-.65.77-.1.77-.32-.6-.17-.77-.32-.12-.65-.38-.65-.2.51-.37.65-.77.1-.77.32S37.39,4.89,37.56,5Z" transform="translate(-27.36 -0.36)"/><path d="M47.23,19a10.92,10.92,0,0,1-6.73-2.24,8.71,8.71,0,0,1-2.11-2.4,7.24,7.24,0,0,1-.94-2.58,6.72,6.72,0,0,1-.1-1.18,7.83,7.83,0,0,1,.19-1.66,7.71,7.71,0,0,1,1.61-3.17,10.95,10.95,0,0,1,16.16,0,7.81,7.81,0,0,1,1.6,3.17,7.23,7.23,0,0,1,.19,1.66A7.81,7.81,0,0,1,57,11.77a7.46,7.46,0,0,1-.95,2.58A8.71,8.71,0,0,1,54,16.75,10.89,10.89,0,0,1,47.23,19Z" transform="translate(-27.36 -0.36)"/><path class="cls-1" d="M39.55,6.27l.14-.18a9.84,9.84,0,0,1,7.54-3.33v.17a5.57,5.57,0,0,0-4.62,2.8l0,0h-.05c-.92.11-1.85.27-2.74.45Zm6-3.2A9.32,9.32,0,0,0,40,6c.8-.16,1.63-.29,2.45-.4A6.32,6.32,0,0,1,45.51,3.07Z" transform="translate(-27.36 -0.36)"/><path class="cls-1" d="M54.91,6.27l-.25,0c-.9-.18-1.82-.34-2.75-.45h0l0,0a5.55,5.55,0,0,0-4.61-2.8V2.76a9.81,9.81,0,0,1,7.53,3.33ZM52,5.61c.83.11,1.65.24,2.46.4A9.32,9.32,0,0,0,49,3.07,6.25,6.25,0,0,1,52,5.61Z" transform="translate(-27.36 -0.36)"/><path class="cls-1" d="M42.35,5.79l.09-.14a5.75,5.75,0,0,1,4.79-2.89v.17c-.83,0-1.62.93-2.18,2.56l0,0H45c-.8,0-1.62.12-2.42.22ZM46.45,3a5.79,5.79,0,0,0-3.74,2.59c.72-.09,1.45-.15,2.17-.2A4.49,4.49,0,0,1,46.45,3Z" transform="translate(-27.36 -0.36)"/><path class="cls-1" d="M52.11,5.79l-.2,0c-.8-.1-1.61-.18-2.41-.22h-.07l0,0c-.56-1.63-1.36-2.56-2.18-2.56V2.76A5.74,5.74,0,0,1,52,5.65Zm-2.53-.41c.72,0,1.45.11,2.17.2A5.79,5.79,0,0,0,48,3,4.55,4.55,0,0,1,49.58,5.38Z" transform="translate(-27.36 -0.36)"/><path class="cls-1" d="M44.82,5.55l0-.11c.6-1.73,1.44-2.68,2.37-2.68h.1V5.48h-.1c-.75,0-1.52,0-2.27.07Zm2.31-2.62c-.77.07-1.51.95-2,2.44q1-.06,2-.06Z" transform="translate(-27.36 -0.36)"/><path class="cls-1" d="M49.64,5.55H49.5c-.76,0-1.52-.07-2.27-.07h-.1V2.76h.1c.93,0,1.77,1,2.37,2.68Zm-2.31-.24c.67,0,1.36,0,2,.06-.54-1.49-1.28-2.37-2-2.44Z" transform="translate(-27.36 -0.36)"/><path class="cls-1" d="M56.29,9.18l-.16,0c-1-.25-2-.46-3.08-.62H53V8.45a8.55,8.55,0,0,0-1.13-2.72l-.09-.15.19,0c.93.12,1.86.27,2.76.46h0l0,0a7.3,7.3,0,0,1,1.5,3Zm-3.14-.81c1,.15,1.94.34,2.88.57a7.06,7.06,0,0,0-1.41-2.73C53.8,6,53,5.9,52.11,5.79A8.9,8.9,0,0,1,53.15,8.37Z" transform="translate(-27.36 -0.36)"/><path class="cls-1" d="M38.17,9.18l0-.13a7.15,7.15,0,0,1,1.49-3l0,0h0c.9-.19,1.83-.34,2.76-.46l.2,0-.1.15a8.31,8.31,0,0,0-1.12,2.72v.06h-.07c-1,.16-2.08.37-3.09.62Zm1.66-3a7.2,7.2,0,0,0-1.41,2.73c.94-.23,1.91-.42,2.89-.57a8.9,8.9,0,0,1,1-2.58Q41.08,6,39.83,6.21Z" transform="translate(-27.36 -0.36)"/><path class="cls-1" d="M53.19,8.54l-.14,0c-1-.15-2-.27-3-.34H50V8.1a13.36,13.36,0,0,0-.6-2.61l0-.12h.14c.81,0,1.63.12,2.43.22H52l0,0a8.54,8.54,0,0,1,1.15,2.77Zm-3-.52c.92.07,1.84.18,2.75.31a8.53,8.53,0,0,0-1.08-2.57c-.73-.09-1.48-.16-2.22-.2A13.74,13.74,0,0,1,50.19,8Z" transform="translate(-27.36 -0.36)"/><path class="cls-1" d="M41.27,8.54l0-.12a8.52,8.52,0,0,1,1.14-2.77l0,0h0c.81-.1,1.63-.17,2.44-.22h.14l0,.12a13.36,13.36,0,0,0-.6,2.61v.07h-.08c-1,.07-2,.19-3,.34Zm1.32-2.78a8.27,8.27,0,0,0-1.07,2.57c.9-.13,1.83-.24,2.74-.31a13.72,13.72,0,0,1,.56-2.46C44.08,5.6,43.33,5.67,42.59,5.76Z" transform="translate(-27.36 -0.36)"/><path class="cls-1" d="M44.24,8.19v-.1a14.37,14.37,0,0,1,.61-2.65l0-.06H45c.75,0,1.52-.07,2.28-.07h.1V8.07h-.1c-1,0-1.92,0-2.87.11ZM45,5.54A13.69,13.69,0,0,0,44.46,8c.89-.06,1.78-.09,2.67-.1V5.48Q46.08,5.48,45,5.54Z" transform="translate(-27.36 -0.36)"/><path class="cls-1" d="M50.21,8.19h-.12c-1-.07-1.91-.11-2.86-.11h-.1V5.31h.1c.75,0,1.52,0,2.28.07h.07l0,.06a13.62,13.62,0,0,1,.6,2.65ZM47.33,7.9c.88,0,1.78,0,2.66.1a12.91,12.91,0,0,0-.56-2.46c-.7,0-1.41-.06-2.1-.06Z" transform="translate(-27.36 -0.36)"/><path class="cls-1" d="M56.33,11.78l-.11,0c-.95-.23-1.94-.44-2.95-.6l-.08,0v-.07c0-.16,0-.32,0-.47A10.24,10.24,0,0,0,53,8.45l0-.12.14,0c1.05.16,2.1.37,3.11.62l.05,0,0,.05a6.62,6.62,0,0,1,.18,1.54,6.8,6.8,0,0,1-.09,1.1ZM53.39,11c1,.15,1.88.34,2.78.57a6.46,6.46,0,0,0,.07-1,6.53,6.53,0,0,0-.16-1.46c-.95-.23-1.92-.43-2.89-.59a10,10,0,0,1,.21,2.05C53.4,10.72,53.4,10.86,53.39,11Z" transform="translate(-27.36 -0.36)"/><path class="cls-1" d="M38.12,11.78v-.09a6.8,6.8,0,0,1-.09-1.1,6.62,6.62,0,0,1,.18-1.54V9l.06,0c1-.25,2-.46,3.1-.62l.14,0,0,.12a9.62,9.62,0,0,0-.24,2.14c0,.15,0,.31,0,.47v.07l-.09,0c-1,.16-2,.37-3,.6Zm.26-2.65a6.54,6.54,0,0,0-.17,1.46,6.48,6.48,0,0,0,.08,1c.9-.23,1.83-.42,2.77-.57v-.41a10,10,0,0,1,.21-2.05C40.29,8.7,39.32,8.9,38.38,9.13Z" transform="translate(-27.36 -0.36)"/><path class="cls-1" d="M53.38,11.17l-.11,0c-1-.16-2-.29-3-.37h-.08v-.18A20.16,20.16,0,0,0,50,8.1L50,8h.12c1,.08,2,.19,3,.35h.07v.05a9.88,9.88,0,0,1,.24,2.17c0,.16,0,.32,0,.48Zm-3-.55c1,.08,1.9.2,2.84.35v-.38A9.67,9.67,0,0,0,53,8.51c-.91-.14-1.84-.25-2.77-.32a18.74,18.74,0,0,1,.15,2.4Z" transform="translate(-27.36 -0.36)"/><path class="cls-1" d="M41.07,11.17v-.1c0-.16,0-.32,0-.48a9.88,9.88,0,0,1,.24-2.17V8.37h.06c1-.16,2-.27,3-.35h.12v.1a18.39,18.39,0,0,0-.16,2.49v.18H44.2c-1,.08-2,.21-3,.37Zm.41-2.66a9.68,9.68,0,0,0-.23,2.08c0,.12,0,.25,0,.38.93-.15,1.88-.27,2.83-.35v0a18.74,18.74,0,0,1,.15-2.4C43.32,8.26,42.39,8.37,41.48,8.51Z" transform="translate(-27.36 -0.36)"/><path class="cls-1" d="M44.09,10.79v-.2a20.33,20.33,0,0,1,.16-2.5V8h.08c1-.07,1.93-.11,2.89-.11h.1v2.76h-.1c-1,0-2,0-3,.12Zm.35-2.62a19.18,19.18,0,0,0-.15,2.42v0c.94-.08,1.9-.11,2.84-.12V8.07C46.23,8.07,45.33,8.11,44.44,8.17Z" transform="translate(-27.36 -0.36)"/><path class="cls-1" d="M50.36,10.79h-.11c-1-.08-2-.12-3-.12h-.1V7.9h.1c1,0,1.93,0,2.88.11h.08v.07a18.54,18.54,0,0,1,.16,2.5Zm-3-.3c.94,0,1.89,0,2.84.12v0A17.46,17.46,0,0,0,50,8.17c-.89-.06-1.79-.1-2.68-.1Z" transform="translate(-27.36 -0.36)"/><path class="cls-1" d="M55.43,14.16l-.08,0c-.83-.19-1.68-.35-2.53-.47l-.11,0,0-.09a9.37,9.37,0,0,0,.45-2.5V11h.11c1,.17,2,.37,3,.62l.08,0v.07a7.15,7.15,0,0,1-.88,2.41ZM53,13.52c.79.12,1.59.27,2.37.44a6.73,6.73,0,0,0,.81-2.23c-.89-.22-1.82-.41-2.76-.56A9.65,9.65,0,0,1,53,13.52Z" transform="translate(-27.36 -0.36)"/><path class="cls-1" d="M39,14.16l0-.06a7,7,0,0,1-.88-2.41v-.07l.08,0c1-.25,2-.45,3-.62h.11v.09a9.37,9.37,0,0,0,.46,2.5l0,.09-.11,0c-.85.12-1.71.28-2.54.47Zm-.71-2.43A6.75,6.75,0,0,0,39.13,14c.78-.17,1.57-.32,2.37-.44a9.66,9.66,0,0,1-.43-2.35C40.13,11.32,39.21,11.51,38.31,11.73Z" transform="translate(-27.36 -0.36)"/><path class="cls-1" d="M52.9,13.68h-.08c-.91-.14-1.84-.24-2.75-.31H50v-.09a19.26,19.26,0,0,0,.19-2.56v-.09h.1c1,.08,2,.2,3,.36l.08,0v.07a9.74,9.74,0,0,1-.46,2.54Zm-2.71-.48c.86.07,1.72.16,2.57.29a9.65,9.65,0,0,0,.43-2.36c-.93-.15-1.88-.26-2.83-.34A20.71,20.71,0,0,1,50.19,13.2Z" transform="translate(-27.36 -0.36)"/><path class="cls-1" d="M41.55,13.68l0-.07a9.35,9.35,0,0,1-.46-2.54V11l.09,0c1-.16,2-.28,3-.36h.11v.09a19.17,19.17,0,0,0,.18,2.56l0,.09h-.1c-.92.07-1.84.17-2.75.31Zm-.28-2.55a9.19,9.19,0,0,0,.42,2.36c.85-.13,1.72-.22,2.58-.29a18.7,18.7,0,0,1-.18-2.41C43.15,10.87,42.2,11,41.27,11.13Z" transform="translate(-27.36 -0.36)"/><path class="cls-1" d="M44.29,13.36v-.07a19.72,19.72,0,0,1-.19-2.59v-.08h.09c1-.08,2-.13,3-.13h.1v2.76h-.1c-.95,0-1.9,0-2.84.11Zm0-2.59a19,19,0,0,0,.17,2.42c.89-.07,1.78-.1,2.67-.1V10.66C46.19,10.66,45.23,10.7,44.29,10.77Z" transform="translate(-27.36 -0.36)"/><path class="cls-1" d="M50.16,13.36h-.09c-.94-.07-1.9-.11-2.84-.11h-.1V10.49h.1c1,0,2,0,3,.13h.09v.08a18.14,18.14,0,0,1-.19,2.59Zm-2.83-.27c.88,0,1.78,0,2.66.1a19,19,0,0,0,.18-2.42c-1-.07-1.9-.11-2.84-.11Z" transform="translate(-27.36 -0.36)"/><path class="cls-1" d="M41,16.36l0,0a8,8,0,0,1-2-2.23L38.94,14l.11,0c.84-.19,1.7-.35,2.56-.48h.08l0,.07A7.71,7.71,0,0,0,43,16l.08.11-.15,0c-.63.07-1.25.16-1.86.26Zm-1.78-2.25a7.84,7.84,0,0,0,1.84,2.07c.54-.09,1.1-.17,1.66-.24a8.07,8.07,0,0,1-1.17-2.26C40.77,13.8,40,13.94,39.22,14.11Z" transform="translate(-27.36 -0.36)"/><path class="cls-1" d="M53.46,16.36h-.05c-.6-.1-1.23-.19-1.85-.26l-.16,0,.09-.11a8.16,8.16,0,0,0,1.25-2.4l0-.07h.09q1.29.2,2.55.48l.12,0-.05.09a8.16,8.16,0,0,1-2,2.23Zm-1.72-.42c.56.07,1.12.15,1.66.24a7.84,7.84,0,0,0,1.84-2.07c-.77-.17-1.56-.31-2.34-.43A8,8,0,0,1,51.74,15.94Z" transform="translate(-27.36 -0.36)"/><path class="cls-1" d="M51.62,16.1h-.06c-.7-.08-1.41-.14-2.1-.18h-.12l0-.1A13,13,0,0,0,50,13.26v-.07h.1c.92.07,1.85.18,2.76.31l.11,0,0,.09a8.11,8.11,0,0,1-1.28,2.44Zm-2-.35c.63,0,1.28.1,1.92.17a8.31,8.31,0,0,0,1.19-2.27c-.84-.12-1.7-.22-2.55-.29A13.77,13.77,0,0,1,49.6,15.75Z" transform="translate(-27.36 -0.36)"/><path class="cls-1" d="M42.83,16.1l0-.05a8.32,8.32,0,0,1-1.27-2.44l0-.09.11,0c.91-.13,1.84-.24,2.76-.31h.09v.07a13,13,0,0,0,.61,2.54l0,.1H45c-.69,0-1.39.1-2.09.18Zm-1.08-2.45a8,8,0,0,0,1.18,2.27c.64-.07,1.29-.13,1.93-.17a12.89,12.89,0,0,1-.57-2.39C43.44,13.43,42.59,13.53,41.75,13.65Z" transform="translate(-27.36 -0.36)"/><path class="cls-1" d="M49.54,15.91h-.08c-.74-.05-1.5-.07-2.23-.07h-.1V13.09h.1c1,0,1.91,0,2.86.1h.1l0,.09a12.65,12.65,0,0,1-.61,2.56Zm-2.21-.23c.68,0,1.38,0,2.07.06A13.74,13.74,0,0,0,50,13.35c-.88-.06-1.77-.1-2.64-.1Z" transform="translate(-27.36 -0.36)"/><path class="cls-1" d="M44.92,15.91l0-.06a13.36,13.36,0,0,1-.61-2.56V13.2h.1c1-.07,1.91-.1,2.86-.1h.1v2.75h-.1c-.74,0-1.49,0-2.24.07Zm-.43-2.56a12.89,12.89,0,0,0,.57,2.39q1-.06,2.07-.06V13.25C46.25,13.25,45.36,13.29,44.49,13.35Z" transform="translate(-27.36 -0.36)"/><path class="cls-1" d="M47.23,18.42v-.16A5.38,5.38,0,0,0,51.49,16l0,0h.06c.63.07,1.26.16,1.87.26l.19,0-.14.11A10.13,10.13,0,0,1,47.23,18.42Zm4.39-2.32a6.12,6.12,0,0,1-2.67,2,9.71,9.71,0,0,0,4.27-1.8C52.7,16.24,52.16,16.16,51.62,16.1Z" transform="translate(-27.36 -0.36)"/><path class="cls-1" d="M47.23,18.42A10.11,10.11,0,0,1,41,16.33l-.14-.11.19,0c.6-.1,1.23-.19,1.86-.26h.06l0,0a5.37,5.37,0,0,0,4.26,2.3Zm-6-2.1a9.62,9.62,0,0,0,4.26,1.8,6.1,6.1,0,0,1-2.66-2C42.3,16.16,41.76,16.24,41.24,16.32Z" transform="translate(-27.36 -0.36)"/><path class="cls-1" d="M47.23,18.42a5.57,5.57,0,0,1-4.43-2.37l-.08-.11h.15c.7-.08,1.41-.15,2.11-.19h.08l0,.06c.56,1.56,1.34,2.46,2.15,2.46Zm-4.18-2.35a5.53,5.53,0,0,0,3.41,2.13,4.46,4.46,0,0,1-1.54-2.29C44.3,16,43.67,16,43.05,16.07Z" transform="translate(-27.36 -0.36)"/><path class="cls-1" d="M47.23,18.42v-.16c.8,0,1.58-.9,2.14-2.46l0-.06h.07c.7,0,1.41.11,2.11.19h.16l-.09.11A5.57,5.57,0,0,1,47.23,18.42Zm2.31-2.51A4.46,4.46,0,0,1,48,18.2a5.53,5.53,0,0,0,3.4-2.13C50.78,16,50.15,16,49.54,15.91Z" transform="translate(-27.36 -0.36)"/><path class="cls-1" d="M47.33,18.42h-.1c-.91,0-1.74-.91-2.34-2.57l0-.1H45c.75,0,1.51-.06,2.25-.06h.1ZM45.12,15.9c.53,1.44,1.26,2.29,2,2.35V15.84Q46.13,15.84,45.12,15.9Z" transform="translate(-27.36 -0.36)"/><path class="cls-1" d="M47.23,18.42h-.1V15.68h.1c.74,0,1.49,0,2.24.06h.13l0,.1C49,17.51,48.14,18.42,47.23,18.42Zm.1-2.58v2.41c.75-.06,1.47-.91,2-2.35C48.67,15.86,48,15.84,47.33,15.84Z" transform="translate(-27.36 -0.36)"/><image width="360" height="135" transform="translate(5.5 4.74) scale(0.08)" xlink:href="../../../../HURUF%20U2U.png"/></svg>