<svg width="24" height="24" viewBox="0 0 24 24" fill="none" xmlns="http://www.w3.org/2000/svg">
  <path fill-rule="evenodd" clip-rule="evenodd" d="M12 2C10.4 2 9 3.4 9 5C9 5.55 9.45 6 10 6C10.55 6 11 5.55 11 5C11 4.45 11.45 4 12 4C13.1 4 14 4.9 14 6C14 7.1 13.1 8 12 8C10.34 8 9 6.66 9 5C9 3.9 8.1 3 7 3H4C3.45 3 3 3.45 3 4V7C3 8.1 3.9 9 5 9C6.66 9 8 10.34 8 12C8 13.66 6.66 15 5 15H3V20C3 20.55 3.45 21 4 21H9C10.1 21 11 20.1 11 19C11 17.9 11.9 17 13 17H14C14.55 17 15 17.45 15 18V21C15 21.55 15.45 22 16 22H19C20.1 22 21 21.1 21 20V17C21 15.9 20.1 15 19 15H17C15.9 15 15 14.1 15 13V10C15 8.9 15.9 8 17 8H20C21.1 8 22 7.1 22 6V5C22 3.9 21.1 3 20 3H12Z" stroke="black" stroke-width="1.5" stroke-linecap="round" stroke-linejoin="round"/>
</svg>
